<svg width="30" height="31" viewBox="0 0 30 31" fill="none" xmlns="http://www.w3.org/2000/svg">
<path fill-rule="evenodd" clip-rule="evenodd" d="M14.6097 0.666687C6.53092 0.666687 0 7.54166 0 16.0469C0 22.8457 4.18459 28.6006 9.98972 30.6375C10.7155 30.7906 10.9814 30.3066 10.9814 29.8994C10.9814 29.5428 10.9574 28.3206 10.9574 27.0472C6.89337 27.9641 6.04706 25.2138 6.04706 25.2138C5.39394 23.4313 4.42622 22.9732 4.42622 22.9732C3.09605 22.031 4.52311 22.031 4.52311 22.031C5.99862 22.1328 6.77285 23.6097 6.77285 23.6097C8.0788 25.9522 10.1832 25.2903 11.0298 24.8828C11.1506 23.8897 11.5379 23.2022 11.9491 22.8203C8.7077 22.4638 5.29735 21.1397 5.29735 15.2319C5.29735 13.5513 5.8775 12.1763 6.79678 11.107C6.65174 10.7251 6.14365 9.14603 6.94211 7.0326C6.94211 7.0326 8.17569 6.6251 10.9571 8.61134C12.148 8.27468 13.3761 8.10341 14.6097 8.10197C15.8433 8.10197 17.1008 8.28041 18.262 8.61134C21.0437 6.6251 22.2773 7.0326 22.2773 7.0326C23.0758 9.14603 22.5674 10.7251 22.4224 11.107C23.3659 12.1763 23.9221 13.5513 23.9221 15.2319C23.9221 21.1397 20.5117 22.4382 17.2461 22.8203C17.7784 23.3041 18.2378 24.2207 18.2378 25.6722C18.2378 27.7347 18.2139 29.39 18.2139 29.8991C18.2139 30.3066 18.48 30.7906 19.2055 30.6378C25.0106 28.6003 29.1952 22.8457 29.1952 16.0469C29.2191 7.54166 22.6643 0.666687 14.6097 0.666687Z" fill="#7159D2"/>
</svg>
