<svg width="38" height="39" viewBox="0 0 38 39" fill="none" xmlns="http://www.w3.org/2000/svg">
<path d="M11.2701 0.459259C5.30935 0.459259 0.459259 5.44595 0.459259 11.5725V27.4448C0.459259 33.5706 5.31221 38.5551 11.2745 38.5551H26.721C32.6825 38.5551 37.5333 33.5684 37.5333 27.4418V11.5681C37.5333 5.44301 32.6804 0.459259 26.7181 0.459259H11.2701ZM30.1185 6.55459C30.9371 6.55459 31.6015 7.23726 31.6015 8.07842C31.6015 8.91957 30.9371 9.60225 30.1185 9.60225C29.2999 9.60225 28.6356 8.91957 28.6356 8.07842C28.6356 7.23726 29.2999 6.55459 30.1185 6.55459ZM18.9963 9.60225C24.3127 9.60225 28.6356 14.0442 28.6356 19.5072C28.6356 24.9701 24.312 29.4121 18.9963 29.4121C13.6799 29.4121 9.35704 24.9693 9.35704 19.5072C9.35704 14.045 13.6799 9.60225 18.9963 9.60225ZM18.9963 12.6499C15.3104 12.6499 12.323 15.7197 12.323 19.5072C12.323 23.2946 15.3104 26.3644 18.9963 26.3644C22.6822 26.3644 25.6696 23.2946 25.6696 19.5072C25.6696 15.7197 22.6822 12.6499 18.9963 12.6499Z" fill="#7159D2"/>
</svg>
