<svg width="44" height="36" viewBox="0 0 44 36" fill="none" xmlns="http://www.w3.org/2000/svg">
<path d="M43.3333 4.20525C41.7359 4.92089 40.0236 5.40139 38.2236 5.61949C40.0608 4.50854 41.4725 2.75011 42.1344 0.657709C40.4188 1.68346 38.5106 2.42978 36.4877 2.8319C34.8666 1.08709 32.5566 0 30 0C25.0895 0 21.1077 4.01441 21.1077 8.96938C21.1077 9.67139 21.1888 10.3564 21.3408 11.0141C13.9514 10.6392 7.4029 7.06782 3.01587 1.63916C2.24924 2.96821 1.81358 4.50854 1.81358 6.15111C1.81358 9.26245 3.38061 12.0092 5.76832 13.6211C4.30935 13.5733 2.9382 13.1678 1.73928 12.4965C1.73928 12.534 1.73928 12.5714 1.73928 12.6089C1.73928 16.9573 4.80581 20.5798 8.86863 21.4079C8.12563 21.6124 7.33874 21.7214 6.5282 21.7214C5.95407 21.7214 5.39683 21.6669 4.85309 21.5579C5.98784 25.119 9.27052 27.7192 13.1577 27.7908C10.1182 30.1967 6.28504 31.628 2.11753 31.628C1.39818 31.628 0.692334 31.5871 0 31.5019C3.9311 34.0509 8.6052 35.5333 13.6272 35.5333C29.9797 35.5333 38.9227 21.8646 38.9227 10.0122C38.9227 9.62368 38.9125 9.23178 38.899 8.85011C40.6349 7.58581 42.1412 6.00458 43.3333 4.20525Z" fill="#7159D2"/>
</svg>
